# Blender 4.2.3 LTS
# www.blender.org
o Cube
v 2.474308 -0.235204 1.832119
v 2.474308 0.235204 1.832119
v 2.474308 0.188309 1.502087
v 2.474308 -0.188309 1.502087
v 1.000000 -0.169662 1.000000
v 1.000000 0.169662 1.000000
v 1.000000 -0.075872 -1.000000
v 1.000000 0.075872 -1.000000
v 2.474308 0.300746 1.667103
v 2.474308 -0.300746 1.667103
v 1.000000 -0.300746 0.000000
v 1.000000 0.300746 0.000000
v 0.000000 -0.075872 -1.000000
v 0.000000 0.075872 -1.000000
v 0.000000 -0.169662 1.000000
v 0.000000 0.169662 1.000000
v 0.000000 0.300746 0.000000
v 0.000000 -0.300746 0.000000
v 2.474308 0.075872 1.337071
v 1.000000 -0.188309 -0.500000
v 2.474308 -0.075872 1.337071
v 1.000000 0.188309 -0.500000
v 0.000000 -0.188309 -0.500000
v 0.000000 0.188309 -0.500000
v 2.474308 0.169662 1.997134
v 1.000000 0.235204 0.500000
v 2.474308 -0.169662 1.997134
v 1.000000 -0.235204 0.500000
v 0.000000 0.235204 0.500000
v 0.000000 -0.235204 0.500000
v 1.895926 -0.169662 1.417260
v 1.895926 0.169662 1.417260
v 1.895926 -0.075872 0.057049
v 1.895926 0.075872 0.057049
v 1.895926 -0.300746 0.737154
v 1.895926 0.300746 0.737154
v 1.895926 -0.188309 0.397101
v 1.895926 0.188309 0.397101
v 1.895926 0.235204 1.077207
v 1.895926 -0.235204 1.077207
v -2.474308 -0.235204 1.832119
v -2.474308 0.235204 1.832119
v -2.474308 0.188309 1.502087
v -2.474308 -0.188309 1.502087
v -1.000000 -0.169662 1.000000
v -1.000000 0.169662 1.000000
v -1.000000 -0.075872 -1.000000
v -1.000000 0.075872 -1.000000
v -2.474308 0.300746 1.667103
v -2.474308 -0.300746 1.667103
v -1.000000 -0.300746 0.000000
v -1.000000 0.300746 0.000000
v -2.474308 0.075872 1.337071
v -1.000000 -0.188309 -0.500000
v -2.474308 -0.075872 1.337071
v -1.000000 0.188309 -0.500000
v -2.474308 0.169662 1.997134
v -1.000000 0.235204 0.500000
v -2.474308 -0.169662 1.997134
v -1.000000 -0.235204 0.500000
v -1.895926 -0.169662 1.417260
v -1.895926 0.169662 1.417260
v -1.895926 -0.075872 0.057049
v -1.895926 0.075872 0.057049
v -1.895926 -0.300746 0.737154
v -1.895926 0.300746 0.737154
v -1.895926 -0.188309 0.397101
v -1.895926 0.188309 0.397101
v -1.895926 0.235204 1.077207
v -1.895926 -0.235204 1.077207
vn 0.5143 0.8142 -0.2692
vn -0.0000 -0.0000 -1.0000
vn 0.2501 -0.9193 -0.3040
vn -0.0000 -0.9915 0.1300
vn 1.0000 -0.0000 -0.0000
vn -0.0000 -0.9756 -0.2194
vn -0.4222 -0.0000 0.9065
vn -0.4340 -0.8373 0.3325
vn -0.0000 0.9756 -0.2194
vn -0.0000 0.9915 0.1300
vn -0.0000 -0.0000 1.0000
vn -0.2398 0.9533 0.1837
vn 0.5706 0.7797 -0.2578
vn 0.2146 0.9529 -0.2143
vn 0.7324 -0.5627 -0.3834
vn -0.3471 -0.8716 0.3462
vn -0.0834 0.9881 0.1295
vn 0.6712 -0.6126 -0.4174
vn 0.9113 -0.0000 -0.4118
vn -0.2911 0.9394 0.1811
vn -0.7080 -0.0000 0.7062
vn 0.7629 -0.0000 -0.6466
vn -0.0878 -0.9781 0.1885
vn 0.2999 -0.9058 -0.2995
vn -0.1210 -0.9747 0.1879
vn -0.1063 0.9859 0.1292
vn 0.2506 0.9445 -0.2124
vn -0.5143 0.8142 -0.2692
vn -0.2146 -0.9529 -0.2143
vn -1.0000 -0.0000 -0.0000
vn 0.4222 -0.0000 0.9065
vn 0.2911 -0.9394 0.1811
vn 0.2398 0.9533 0.1837
vn -0.5706 0.7797 -0.2578
vn -0.2146 0.9529 -0.2143
vn -0.5706 -0.7797 -0.2578
vn 0.2398 -0.9533 0.1837
vn 0.0834 0.9881 0.1295
vn -0.5143 -0.8142 -0.2692
vn -0.9113 -0.0000 -0.4118
vn 0.2911 0.9394 0.1811
vn 0.7080 -0.0000 0.7062
vn -0.7629 -0.0000 -0.6466
vn 0.0834 -0.9881 0.1295
vn -0.2506 -0.9445 -0.2124
vn 0.1063 -0.9859 0.1292
vn 0.1063 0.9859 0.1292
vn -0.2506 0.9445 -0.2124
vn 0.6712 0.6126 -0.4174
vn 0.2146 -0.9529 -0.2143
vn -0.2911 -0.9394 0.1811
vn -0.3471 0.8716 0.3462
vn 0.7324 0.5627 -0.3834
vn 0.2501 0.9193 -0.3040
vn 0.5706 -0.7797 -0.2578
vn -0.2398 -0.9533 0.1837
vn -0.0878 0.9781 0.1885
vn 0.5143 -0.8142 -0.2692
vn -0.4340 0.8373 0.3325
vn -0.0834 -0.9881 0.1295
vn 0.2506 -0.9445 -0.2124
vn -0.1063 -0.9859 0.1292
vn -0.1210 0.9747 0.1879
vn 0.2999 0.9058 -0.2995
vn -0.6712 0.6126 -0.4174
vn -0.2501 -0.9193 -0.3040
vn 0.4340 -0.8373 0.3325
vn 0.3471 0.8716 0.3462
vn -0.7324 0.5627 -0.3834
vn -0.2501 0.9193 -0.3040
vn -0.7324 -0.5627 -0.3834
vn 0.3471 -0.8716 0.3462
vn 0.0878 0.9781 0.1885
vn -0.6712 -0.6126 -0.4174
vn 0.4340 0.8373 0.3325
vn 0.0878 -0.9781 0.1885
vn -0.2999 -0.9058 -0.2995
vn 0.1210 -0.9747 0.1879
vn 0.1210 0.9747 0.1879
vn -0.2999 0.9058 -0.2995
vt 0.625000 0.625000
vt 0.625000 0.562500
vt 0.625000 0.375000
vt 0.375000 0.500000
vt 0.375000 0.375000
vt 0.375000 0.625000
vt 0.375000 0.562500
vt 0.375000 0.687500
vt 0.250000 0.750000
vt 0.250000 0.687500
vt 0.625000 0.687500
vt 0.375000 0.750000
vt 0.250000 0.625000
vt 0.250000 0.562500
vt 0.625000 0.750000
vt 0.625000 0.500000
vt 0.750000 0.562500
vt 0.750000 0.687500
vt 0.375000 0.875000
vt 0.750000 0.500000
vt 0.250000 0.500000
vt 0.750000 0.625000
vt 0.750000 0.750000
vt 0.625000 0.875000
s 0
f 36/1/1 3/2/1 38/2/1
f 14/3/2 7/4/2 13/5/2
f 11/6/3 37/7/3 35/6/3
f 28/8/4 15/9/4 30/10/4
f 2/11/5 27/12/5 1/8/5
f 20/7/6 18/13/6 23/14/6
f 5/12/7 32/15/7 6/15/7
f 19/16/5 4/7/5 21/4/5
f 40/8/8 10/6/8 1/8/8
f 24/17/9 12/1/9 22/2/9
f 29/18/10 6/15/10 26/11/10
f 6/15/11 15/19/11 5/12/11
f 32/15/12 2/11/12 39/11/12
f 14/20/9 22/2/9 8/16/9
f 38/2/13 19/16/13 34/16/13
f 12/1/14 38/2/14 22/2/14
f 7/4/6 23/14/6 13/21/6
f 37/7/15 21/4/15 4/7/15
f 31/12/16 1/8/16 27/12/16
f 9/1/5 1/8/5 10/6/5
f 17/22/10 26/11/10 12/1/10
f 3/2/5 10/6/5 4/7/5
f 11/6/4 30/10/4 18/13/4
f 6/15/17 39/11/17 26/11/17
f 35/6/18 4/7/18 10/6/18
f 34/16/19 21/4/19 33/4/19
f 39/11/20 9/1/20 36/1/20
f 31/12/21 25/15/21 32/15/21
f 8/16/22 33/4/22 7/4/22
f 5/12/23 40/8/23 31/12/23
f 20/7/24 33/4/24 37/7/24
f 28/8/25 35/6/25 40/8/25
f 26/11/26 36/1/26 12/1/26
f 22/2/27 34/16/27 8/16/27
f 43/2/28 66/1/28 68/2/28
f 47/4/2 14/3/2 13/5/2
f 51/6/29 67/7/29 54/7/29
f 15/9/4 60/8/4 30/10/4
f 59/12/30 42/11/30 41/8/30
f 18/13/6 54/7/6 23/14/6
f 62/15/31 45/12/31 46/15/31
f 44/7/30 53/16/30 55/4/30
f 70/8/32 50/6/32 65/6/32
f 52/1/9 24/17/9 56/2/9
f 46/15/10 29/18/10 58/11/10
f 15/19/11 46/15/11 45/12/11
f 42/11/33 62/15/33 69/11/33
f 56/2/9 14/20/9 48/16/9
f 53/16/34 68/2/34 64/16/34
f 68/2/35 52/1/35 56/2/35
f 23/14/6 47/4/6 13/21/6
f 67/7/36 55/4/36 63/4/36
f 61/12/37 41/8/37 70/8/37
f 50/6/30 42/11/30 49/1/30
f 58/11/10 17/22/10 52/1/10
f 50/6/30 43/2/30 44/7/30
f 30/10/4 51/6/4 18/13/4
f 69/11/38 46/15/38 58/11/38
f 65/6/39 44/7/39 67/7/39
f 55/4/40 64/16/40 63/4/40
f 49/1/41 69/11/41 66/1/41
f 57/15/42 61/12/42 62/15/42
f 63/4/43 48/16/43 47/4/43
f 45/12/44 70/8/44 60/8/44
f 54/7/45 63/4/45 47/4/45
f 60/8/46 65/6/46 51/6/46
f 66/1/47 58/11/47 52/1/47
f 64/16/48 56/2/48 48/16/48
f 36/1/49 9/1/49 3/2/49
f 14/3/2 8/16/2 7/4/2
f 11/6/50 20/7/50 37/7/50
f 28/8/4 5/12/4 15/9/4
f 2/11/5 25/15/5 27/12/5
f 20/7/6 11/6/6 18/13/6
f 5/12/7 31/12/7 32/15/7
f 19/16/5 3/2/5 4/7/5
f 40/8/51 35/6/51 10/6/51
f 24/17/9 17/22/9 12/1/9
f 29/18/10 16/23/10 6/15/10
f 6/15/11 16/24/11 15/19/11
f 32/15/52 25/15/52 2/11/52
f 14/20/9 24/17/9 22/2/9
f 38/2/53 3/2/53 19/16/53
f 12/1/54 36/1/54 38/2/54
f 7/4/6 20/7/6 23/14/6
f 37/7/55 33/4/55 21/4/55
f 31/12/56 40/8/56 1/8/56
f 9/1/5 2/11/5 1/8/5
f 17/22/10 29/18/10 26/11/10
f 3/2/5 9/1/5 10/6/5
f 11/6/4 28/8/4 30/10/4
f 6/15/57 32/15/57 39/11/57
f 35/6/58 37/7/58 4/7/58
f 34/16/19 19/16/19 21/4/19
f 39/11/59 2/11/59 9/1/59
f 31/12/21 27/12/21 25/15/21
f 8/16/22 34/16/22 33/4/22
f 5/12/60 28/8/60 40/8/60
f 20/7/61 7/4/61 33/4/61
f 28/8/62 11/6/62 35/6/62
f 26/11/63 39/11/63 36/1/63
f 22/2/64 38/2/64 34/16/64
f 43/2/65 49/1/65 66/1/65
f 47/4/2 48/16/2 14/3/2
f 51/6/66 65/6/66 67/7/66
f 15/9/4 45/12/4 60/8/4
f 59/12/30 57/15/30 42/11/30
f 18/13/6 51/6/6 54/7/6
f 62/15/31 61/12/31 45/12/31
f 44/7/30 43/2/30 53/16/30
f 70/8/67 41/8/67 50/6/67
f 52/1/9 17/22/9 24/17/9
f 46/15/10 16/23/10 29/18/10
f 15/19/11 16/24/11 46/15/11
f 42/11/68 57/15/68 62/15/68
f 56/2/9 24/17/9 14/20/9
f 53/16/69 43/2/69 68/2/69
f 68/2/70 66/1/70 52/1/70
f 23/14/6 54/7/6 47/4/6
f 67/7/71 44/7/71 55/4/71
f 61/12/72 59/12/72 41/8/72
f 50/6/30 41/8/30 42/11/30
f 58/11/10 29/18/10 17/22/10
f 50/6/30 49/1/30 43/2/30
f 30/10/4 60/8/4 51/6/4
f 69/11/73 62/15/73 46/15/73
f 65/6/74 50/6/74 44/7/74
f 55/4/40 53/16/40 64/16/40
f 49/1/75 42/11/75 69/11/75
f 57/15/42 59/12/42 61/12/42
f 63/4/43 64/16/43 48/16/43
f 45/12/76 61/12/76 70/8/76
f 54/7/77 67/7/77 63/4/77
f 60/8/78 70/8/78 65/6/78
f 66/1/79 69/11/79 58/11/79
f 64/16/80 68/2/80 56/2/80
